<svg xmlns="http://www.w3.org/2000/svg" height="48" viewBox="0 96 960 960" width="48"><path d="M280 976q-24.75 0-42.375-17.625T220 916V356q0-24.75 17.625-42.375T280 296h80v-40q0-33 23.5-56.5T440 176h80q33 0 56.5 23.5T600 256v40h80q24.75 0 42.375 17.625T740 356v560q0 24.75-17.625 42.375T680 976H280Zm0-60h400V356H280v560Zm160-140q24.75 0 42.375-17.625T500 716q0-24.75-17.625-42.375T440 656q-24.75 0-42.375 17.625T380 716q0 24.75 17.625 42.375T440 776ZM360 296h160v-40H360v40ZM280 916V356v560Z" /></svg>